# xmcd
#
# Track frame offsets: 
#        150
#        20460
#        39748
#        59038
#        82825
#        101090
#        122490
#        141080
#        161610
#        185993
#        203718
#        221375
#
# Disc length: 3136 seconds
#
# Revision: 0
# Processed by: cddbd v1.5.2PL0 Copyright (c) Steve Scherf et al.
# Submitted via: ExactAudioCopy v0.95b4
#
DISCID=aa0c3e0c
DTITLE=Dr. Hector and The Groove Injectors - Bad Connection
DYEAR=1995
DGENRE=Blues
TTITLE0=The Fever
TTITLE1=Mr. Right Now
TTITLE2=The High Cost Of Living
TTITLE3=Safe in Your Arms Again
TTITLE4=Midnight Run
TTITLE5=Eyes Of A Child
TTITLE6=Bad Connection
TTITLE7=No Mercy At All
TTITLE8=Doing All The Wrong Things Right
TTITLE9=City Lights
TTITLE10=A Fool Like Me
TTITLE11=Psychotherapy
EXTD=
EXTT0=
EXTT1=
EXTT2=
EXTT3=
EXTT4=
EXTT5=
EXTT6=
EXTT7=
EXTT8=
EXTT9=
EXTT10=
EXTT11=
PLAYORDER=
